<?xml version="1.0" encoding="UTF-8" standalone="no"?>
<!-- Created with Inkscape (http://www.inkscape.org/) -->

<svg
   width="54.400002mm"
   height="68.599998mm"
   viewBox="0 0 54.400001 68.599999"
   version="1.1"
   id="svg1"
   xml:space="preserve"
   inkscape:version="1.4.3 (0d15f75, 2025-12-25)"
   sodipodi:docname="Arduino.svg"
   xmlns:inkscape="http://www.inkscape.org/namespaces/inkscape"
   xmlns:sodipodi="http://sodipodi.sourceforge.net/DTD/sodipodi-0.dtd"
   xmlns:xlink="http://www.w3.org/1999/xlink"
   xmlns="http://www.w3.org/2000/svg"
   xmlns:svg="http://www.w3.org/2000/svg"><sodipodi:namedview
     id="namedview1"
     pagecolor="#ffffff"
     bordercolor="#cccccc"
     borderopacity="1"
     inkscape:showpageshadow="0"
     inkscape:pageopacity="1"
     inkscape:pagecheckerboard="0"
     inkscape:deskcolor="#d1d1d1"
     inkscape:document-units="mm"
     inkscape:zoom="2.7545174"
     inkscape:cx="-4.538"
     inkscape:cy="92.756721"
     inkscape:window-width="2133"
     inkscape:window-height="1111"
     inkscape:window-x="-9"
     inkscape:window-y="-9"
     inkscape:window-maximized="1"
     inkscape:current-layer="layer1" /><defs
     id="defs1"><marker
       style="overflow:visible"
       id="ColoredDot"
       refX="0"
       refY="0"
       orient="auto"
       inkscape:stockid="Colored dot"
       markerWidth="0.40000001"
       markerHeight="0.40000001"
       viewBox="0 0 1 1"
       inkscape:isstock="true"
       inkscape:collect="always"
       preserveAspectRatio="xMidYMid"><path
         transform="scale(0.45)"
         style="fill:context-fill;fill-rule:evenodd;stroke:context-stroke;stroke-width:2"
         d="M 5,0 C 5,2.76 2.76,5 0,5 -2.76,5 -5,2.76 -5,0 c 0,-2.76 2.3,-5 5,-5 2.76,0 5,2.24 5,5 z"
         sodipodi:nodetypes="sssss"
         id="path20" /></marker><linearGradient
       id="linearGradient106"
       inkscape:collect="always"><stop
         style="stop-color:#ababab;stop-opacity:1;"
         offset="0"
         id="stop104" /><stop
         style="stop-color:#eaeaea;stop-opacity:1;"
         offset="0.41209829"
         id="stop107" /><stop
         style="stop-color:#eaeaea;stop-opacity:1;"
         offset="0.731704"
         id="stop105" /><stop
         style="stop-color:#ababab;stop-opacity:1;"
         offset="1"
         id="stop106" /></linearGradient><linearGradient
       id="linearGradient96"
       inkscape:collect="always"><stop
         style="stop-color:#222222;stop-opacity:1;"
         offset="0"
         id="stop96" /><stop
         style="stop-color:#2b2b2b;stop-opacity:1;"
         offset="0.38941398"
         id="stop99" /><stop
         style="stop-color:#2f2f2f;stop-opacity:1;"
         offset="0.72589797"
         id="stop98" /><stop
         style="stop-color:#222222;stop-opacity:1;"
         offset="1"
         id="stop97" /></linearGradient><linearGradient
       id="linearGradient32"
       inkscape:collect="always"><stop
         style="stop-color:#d1d1d1;stop-opacity:1;"
         offset="0"
         id="stop32" /><stop
         style="stop-color:#939393;stop-opacity:1;"
         offset="0.75776398"
         id="stop33" /></linearGradient><linearGradient
       id="linearGradient27"
       inkscape:collect="always"><stop
         style="stop-color:#222222;stop-opacity:1;"
         offset="0"
         id="stop28" /><stop
         style="stop-color:#4d4d4d;stop-opacity:1;"
         offset="0.30745339"
         id="stop30" /><stop
         style="stop-color:#222222;stop-opacity:1;"
         offset="0.7453416"
         id="stop29" /></linearGradient><linearGradient
       id="linearGradient25"
       inkscape:collect="always"><stop
         style="stop-color:#ababab;stop-opacity:1;"
         offset="0"
         id="stop25" /><stop
         style="stop-color:#c4c4c4;stop-opacity:1;"
         offset="0.6490683"
         id="stop27" /><stop
         style="stop-color:#979797;stop-opacity:1;"
         offset="1"
         id="stop26" /></linearGradient><linearGradient
       id="linearGradient20"
       inkscape:collect="always"><stop
         style="stop-color:#ababab;stop-opacity:1;"
         offset="0"
         id="stop21" /><stop
         style="stop-color:#eaeaea;stop-opacity:1;"
         offset="0.68633538"
         id="stop23" /><stop
         style="stop-color:#ababab;stop-opacity:1;"
         offset="1"
         id="stop22" /></linearGradient><linearGradient
       id="linearGradient18"
       inkscape:collect="always"><stop
         style="stop-color:#308a88;stop-opacity:1;"
         offset="0"
         id="stop18" /><stop
         style="stop-color:#68b4a2;stop-opacity:1;"
         offset="0.5962733"
         id="stop19" /><stop
         style="stop-color:#308a88;stop-opacity:1;"
         offset="0.98757762"
         id="stop20" /></linearGradient><linearGradient
       inkscape:collect="always"
       xlink:href="#linearGradient18"
       id="linearGradient19"
       x1="7.8231826"
       y1="16.756472"
       x2="46.639156"
       y2="55.572445"
       gradientUnits="userSpaceOnUse" /><linearGradient
       inkscape:collect="always"
       xlink:href="#linearGradient20"
       id="linearGradient22"
       x1="37.794792"
       y1="3.0711541"
       x2="44.043495"
       y2="9.3198557"
       gradientUnits="userSpaceOnUse" /><linearGradient
       inkscape:collect="always"
       xlink:href="#linearGradient25"
       id="linearGradient26"
       x1="37.574528"
       y1="2.8508899"
       x2="44.26376"
       y2="9.5401192"
       gradientUnits="userSpaceOnUse" /><linearGradient
       inkscape:collect="always"
       xlink:href="#linearGradient27"
       id="linearGradient29"
       x1="3.0999999"
       y1="7.8546112"
       x2="9.5356402"
       y2="7.8546112"
       gradientUnits="userSpaceOnUse" /><linearGradient
       inkscape:collect="always"
       xlink:href="#linearGradient32"
       id="linearGradient34"
       gradientUnits="userSpaceOnUse"
       gradientTransform="matrix(1.0184453,0,0,0.20682414,-0.25551193,32.774084)"
       x1="8.6448898"
       y1="34.003233"
       x2="17.481889"
       y2="34.003233" /><linearGradient
       inkscape:collect="always"
       xlink:href="#linearGradient32"
       id="linearGradient72"
       gradientUnits="userSpaceOnUse"
       gradientTransform="matrix(1.0184453,0,0,0.20682414,-0.25551193,26.65595)"
       x1="8.6448898"
       y1="34.003233"
       x2="17.481889"
       y2="34.003233" /><linearGradient
       inkscape:collect="always"
       xlink:href="#linearGradient32"
       id="linearGradient84"
       gradientUnits="userSpaceOnUse"
       gradientTransform="matrix(1.0184453,0,0,0.20682414,-0.25551193,26.146108)"
       x1="8.6448898"
       y1="34.003233"
       x2="17.481889"
       y2="34.003233" /><linearGradient
       inkscape:collect="always"
       xlink:href="#linearGradient32"
       id="linearGradient85"
       gradientUnits="userSpaceOnUse"
       gradientTransform="matrix(1.0184453,0,0,0.20682414,-0.25551193,27.165798)"
       x1="8.6448898"
       y1="34.003233"
       x2="17.481889"
       y2="34.003233" /><linearGradient
       inkscape:collect="always"
       xlink:href="#linearGradient32"
       id="linearGradient86"
       gradientUnits="userSpaceOnUse"
       gradientTransform="matrix(1.0184453,0,0,0.20682414,-0.25551193,27.67564)"
       x1="8.6448898"
       y1="34.003233"
       x2="17.481889"
       y2="34.003233" /><linearGradient
       inkscape:collect="always"
       xlink:href="#linearGradient32"
       id="linearGradient87"
       gradientUnits="userSpaceOnUse"
       gradientTransform="matrix(1.0184453,0,0,0.20682414,-0.25551193,28.185487)"
       x1="8.6448898"
       y1="34.003233"
       x2="17.481889"
       y2="34.003233" /><linearGradient
       inkscape:collect="always"
       xlink:href="#linearGradient32"
       id="linearGradient88"
       gradientUnits="userSpaceOnUse"
       gradientTransform="matrix(1.0184453,0,0,0.20682414,-0.25551193,28.695329)"
       x1="8.6448898"
       y1="34.003233"
       x2="17.481889"
       y2="34.003233" /><linearGradient
       inkscape:collect="always"
       xlink:href="#linearGradient32"
       id="linearGradient89"
       gradientUnits="userSpaceOnUse"
       gradientTransform="matrix(1.0184453,0,0,0.20682414,-0.25551193,29.205172)"
       x1="8.6448898"
       y1="34.003233"
       x2="17.481889"
       y2="34.003233" /><linearGradient
       inkscape:collect="always"
       xlink:href="#linearGradient32"
       id="linearGradient90"
       gradientUnits="userSpaceOnUse"
       gradientTransform="matrix(1.0184453,0,0,0.20682414,-0.25551193,29.71502)"
       x1="8.6448898"
       y1="34.003233"
       x2="17.481889"
       y2="34.003233" /><linearGradient
       inkscape:collect="always"
       xlink:href="#linearGradient32"
       id="linearGradient91"
       gradientUnits="userSpaceOnUse"
       gradientTransform="matrix(1.0184453,0,0,0.20682414,-0.25551193,30.224862)"
       x1="8.6448898"
       y1="34.003233"
       x2="17.481889"
       y2="34.003233" /><linearGradient
       inkscape:collect="always"
       xlink:href="#linearGradient32"
       id="linearGradient92"
       gradientUnits="userSpaceOnUse"
       gradientTransform="matrix(1.0184453,0,0,0.20682414,-0.25551193,30.734704)"
       x1="8.6448898"
       y1="34.003233"
       x2="17.481889"
       y2="34.003233" /><linearGradient
       inkscape:collect="always"
       xlink:href="#linearGradient32"
       id="linearGradient93"
       gradientUnits="userSpaceOnUse"
       gradientTransform="matrix(1.0184453,0,0,0.20682414,-0.25551193,31.244552)"
       x1="8.6448898"
       y1="34.003233"
       x2="17.481889"
       y2="34.003233" /><linearGradient
       inkscape:collect="always"
       xlink:href="#linearGradient32"
       id="linearGradient94"
       gradientUnits="userSpaceOnUse"
       gradientTransform="matrix(1.0184453,0,0,0.20682414,-0.25551193,31.754393)"
       x1="8.6448898"
       y1="34.003233"
       x2="17.481889"
       y2="34.003233" /><linearGradient
       inkscape:collect="always"
       xlink:href="#linearGradient32"
       id="linearGradient95"
       gradientUnits="userSpaceOnUse"
       gradientTransform="matrix(1.0184453,0,0,0.20682414,-0.25551193,32.264245)"
       x1="8.6448898"
       y1="34.003233"
       x2="17.481889"
       y2="34.003233" /><linearGradient
       inkscape:collect="always"
       xlink:href="#linearGradient96"
       id="linearGradient97"
       x1="10.932826"
       y1="32.931595"
       x2="15.063163"
       y2="40.085548"
       gradientUnits="userSpaceOnUse" /><linearGradient
       inkscape:collect="always"
       xlink:href="#linearGradient106"
       id="linearGradient104"
       x1="19.436367"
       y1="21.265894"
       x2="24.172298"
       y2="22.534883"
       gradientUnits="userSpaceOnUse"
       gradientTransform="translate(0.09605433,0.288163)" /><linearGradient
       inkscape:collect="always"
       xlink:href="#linearGradient106"
       id="linearGradient110"
       x1="1.3447604"
       y1="17.673998"
       x2="5.7632599"
       y2="17.673998"
       gradientUnits="userSpaceOnUse"
       gradientTransform="matrix(1.5652174,0,0,1.5652174,0.87457738,-8.64489)" /><linearGradient
       inkscape:collect="always"
       xlink:href="#linearGradient106"
       id="linearGradient111"
       gradientUnits="userSpaceOnUse"
       gradientTransform="matrix(1.5652174,0,0,1.5652174,0.87457738,-0.94839327)"
       x1="1.3447604"
       y1="17.673998"
       x2="5.7632599"
       y2="17.673998" /></defs><g
     inkscape:label="Layer 1"
     inkscape:groupmode="layer"
     id="layer1"><path
       id="path1"
       style="fill:url(#linearGradient19);stroke:#1e676d;stroke-width:0.623;stroke-linecap:round;fill-opacity:1;stroke-dasharray:none;stroke-opacity:1"
       d="M 0.096118164 3.7460246 L 0.19223633 65.316943 L 4.2266154 68.582894 L 29.680876 68.582894 L 31.793925 65.316943 L 54.366707 65.316943 L 54.366707 3.7460246 L 0.096118164 3.7460246 z M 3.282487 11.700061 A 1.7289779 1.7289779 0 0 1 5.0115804 13.429154 A 1.7289779 1.7289779 0 0 1 3.282487 15.157731 A 1.7289779 1.7289779 0 0 1 1.5533936 13.429154 A 1.7289779 1.7289779 0 0 1 3.282487 11.700061 z M 52.26141 11.700061 A 1.7289779 1.7289779 0 0 1 53.990503 13.429154 A 1.7289779 1.7289779 0 0 1 52.26141 15.157731 A 1.7289779 1.7289779 0 0 1 50.532833 13.429154 A 1.7289779 1.7289779 0 0 1 52.26141 11.700061 z M 5.5712362 63.44574 A 1.7289779 1.7289779 0 0 1 7.3003296 65.174833 A 1.7289779 1.7289779 0 0 1 5.5712362 66.903927 A 1.7289779 1.7289779 0 0 1 3.8421427 65.174833 A 1.7289779 1.7289779 0 0 1 5.5712362 63.44574 z M 28.212748 63.44574 A 1.7289779 1.7289779 0 0 1 29.941842 65.174833 A 1.7289779 1.7289779 0 0 1 28.212748 66.903927 A 1.7289779 1.7289779 0 0 1 26.483655 65.174833 A 1.7289779 1.7289779 0 0 1 28.212748 63.44574 z " /></g><g
     inkscape:groupmode="layer"
     id="layer5"
     inkscape:label="Wires"><circle
       id="path111"
       style="fill:#222222;stroke:none;stroke-width:0.264583"
       cx="2.0171409"
       cy="36.500645"
       r="0.75" /><path
       style="fill:none;fill-opacity:1;stroke:#175851;stroke-width:0.6;stroke-linecap:round;stroke-dasharray:none;stroke-opacity:1"
       d="m 2.017141,37.604403 h 8.64489 L 20.17141,24.060742 h 11.142302 l 9.989651,-13.255498 h 5.76326 l 5.667205,6.531695"
       id="path112" /><path
       style="fill:none;fill-opacity:1;stroke:#175851;stroke-width:0.6;stroke-linecap:round;stroke-dasharray:none;stroke-opacity:1"
       d="m 2.017141,40.250238 h 8.64489 L 20.17141,26.706577 h 11.142302 l 9.989651,-13.255498 h 5.76326 l 5.667205,6.531695"
       id="path113" /><path
       style="fill:none;fill-opacity:1;stroke:#175851;stroke-width:0.600001;stroke-linecap:round;stroke-dasharray:none;stroke-opacity:1"
       d="M 2.305304,61.810095 H 8.7409442"
       id="path124"
       inkscape:label="path124" /><path
       style="fill:none;fill-opacity:1;stroke:#175851;stroke-width:0.600001;stroke-linecap:round;stroke-dasharray:none;stroke-opacity:1"
       d="M 2.305304,59.693427 H 8.7409442"
       id="path125" /><path
       style="fill:none;fill-opacity:1;stroke:#175851;stroke-width:0.600001;stroke-linecap:round;stroke-dasharray:none;stroke-opacity:1"
       d="M 2.305304,57.576759 H 8.7409442"
       id="path126" /><path
       style="fill:none;fill-opacity:1;stroke:#175851;stroke-width:0.600001;stroke-linecap:round;stroke-dasharray:none;stroke-opacity:1"
       d="M 2.305304,55.460091 H 8.7409442"
       id="path127" /><path
       style="fill:none;fill-opacity:1;stroke:#175851;stroke-width:0.600001;stroke-linecap:round;stroke-dasharray:none;stroke-opacity:1"
       d="M 2.305304,53.343423 H 8.7409442"
       id="path128" /><path
       style="fill:none;fill-opacity:1;stroke:#175851;stroke-width:0.600001;stroke-linecap:round;stroke-dasharray:none;stroke-opacity:1"
       d="M 2.305304,51.226755 H 8.7409442"
       id="path129" /><path
       style="fill:none;fill-opacity:1;stroke:#175851;stroke-width:0.600001;stroke-linecap:round;stroke-dasharray:none;stroke-opacity:1"
       d="M 2.305304,49.110087 H 8.7409442"
       id="path130" /><path
       style="fill:none;fill-opacity:1;stroke:#175851;stroke-width:0.600001;stroke-linecap:round;stroke-dasharray:none;stroke-opacity:1"
       d="M 2.305304,46.464252 H 8.7409442"
       id="path131" /><path
       style="fill:none;fill-opacity:1;stroke:#175851;stroke-width:0.600001;stroke-linecap:round;stroke-dasharray:none;stroke-opacity:1"
       d="M 2.305304,44.347584 H 8.7409442"
       id="path132" /><path
       style="fill:none;fill-opacity:1;stroke:#175851;stroke-width:0.600001;stroke-linecap:round;stroke-dasharray:none;stroke-opacity:1"
       d="M 2.305304,42.230916 H 8.7409442"
       id="path133" /><path
       style="fill:none;fill-opacity:1;stroke:#175851;stroke-width:0.600001;stroke-linecap:round;stroke-dasharray:none;stroke-opacity:1"
       d="M 2.305304,42.230916 H 8.7409442"
       id="path134" /><path
       style="fill:none;fill-opacity:1;stroke:#175851;stroke-width:0.600001;stroke-linecap:round;stroke-dasharray:none;stroke-opacity:1"
       d="m 16.521345,59.169469 h 2.977684 l 2.401359,4.322445"
       id="path135" /><path
       style="fill:none;fill-opacity:1;stroke:#175851;stroke-width:0.600001;stroke-linecap:round;stroke-dasharray:none;stroke-opacity:1;marker-start:url(#ColoredDot);marker-end:url(#ColoredDot);paint-order:stroke fill markers"
       d="M 22.572768,63.011642 V 51.00485"
       id="path136" /><path
       style="fill:none;fill-opacity:1;stroke:#175851;stroke-width:0.600001;stroke-linecap:round;stroke-dasharray:none;stroke-opacity:1;marker-start:url(#ColoredDot);marker-end:url(#ColoredDot);paint-order:stroke fill markers"
       d="m 24.974127,62.915588 v -8.548836 l 4.89877,-5.571151 v -6.243532"
       id="path137" /><path
       style="fill:none;fill-opacity:1;stroke:#175851;stroke-width:0.600001;stroke-linecap:round;stroke-dasharray:none;stroke-opacity:1;paint-order:stroke fill markers;marker-end:url(#ColoredDot)"
       d="m 15.553833,41.974973 h 9.03345 l 5.094051,-5.501574 h 10.12018"
       id="path138" /><path
       style="fill:none;fill-opacity:1;stroke:#175851;stroke-width:0.600001;stroke-linecap:round;stroke-dasharray:none;stroke-opacity:1;paint-order:stroke fill markers;marker-end:url(#ColoredDot)"
       d="m 16.23304,39.869432 h 6.316623 l 5.297812,-6.18078 h 8.558003 l 2.445144,-2.920587"
       id="path139" /><path
       style="fill:none;fill-opacity:1;stroke:#175851;stroke-width:0.600001;stroke-linecap:round;stroke-dasharray:none;stroke-opacity:1;paint-order:stroke fill markers"
       d="M 6.1128602,11.003149 V 24.587283"
       id="path140" /><path
       style="fill:none;fill-opacity:1;stroke:#175851;stroke-width:0.600001;stroke-linecap:round;stroke-dasharray:none;stroke-opacity:1;paint-order:stroke fill markers"
       d="m 8.1504805,9.8484972 v 6.9958288 l 3.9393985,4.482764 h 9.440973"
       id="path141" /><path
       style="fill:none;fill-opacity:1;stroke:#175851;stroke-width:0.600001;stroke-linecap:round;stroke-dasharray:none;stroke-opacity:1;paint-order:stroke fill markers;marker-end:url(#ColoredDot);marker-start:url(#ColoredDot)"
       d="m 34.096176,30.224698 7.810879,-9.16929"
       id="path142" /><path
       style="fill:none;fill-opacity:1;stroke:#175851;stroke-width:0.600001;stroke-linecap:round;stroke-dasharray:none;stroke-opacity:1;paint-order:stroke fill markers"
       d="M 8.3542425,13.17661 H 14.738785"
       id="path144" /><path
       style="fill:none;fill-opacity:1;stroke:#175851;stroke-width:0.600001;stroke-linecap:round;stroke-dasharray:none;stroke-opacity:1;paint-order:stroke fill markers"
       d="m 18.20274,13.040769 h 1.901778 l 1.290493,1.630096 v 3.12435"
       id="path145" /><path
       style="fill:none;fill-opacity:1;stroke:#175851;stroke-width:0.600001;stroke-linecap:round;stroke-dasharray:none;stroke-opacity:1;paint-order:stroke fill markers"
       d="m 20.104518,13.040769 h 8.625924 L 31.039747,12.1578 V 8.7617664"
       id="path146" /><path
       style="fill:none;fill-opacity:1;stroke:#175851;stroke-width:0.600001;stroke-linecap:round;stroke-dasharray:none;stroke-opacity:1;paint-order:stroke fill markers"
       d="M 32.058557,9.1013697 V 21.055408"
       id="path147" /><path
       style="fill:none;fill-opacity:1;stroke:#175851;stroke-width:0.600001;stroke-linecap:round;stroke-dasharray:none;stroke-opacity:1;paint-order:stroke fill markers"
       d="m 33.213209,9.1013697 v 2.3772233 h 3.939397"
       id="path148" /><path
       style="fill:none;fill-opacity:1;stroke:#175851;stroke-width:0.600001;stroke-linecap:round;stroke-dasharray:none;stroke-opacity:1;paint-order:stroke fill markers;marker-end:url(#ColoredDot)"
       d="M 46.118134,16.844326 H 41.907055"
       id="path149" /><path
       style="fill:none;fill-opacity:1;stroke:#175851;stroke-width:0.600001;stroke-linecap:round;stroke-dasharray:none;stroke-opacity:1;paint-order:stroke fill markers;marker-end:url(#ColoredDot)"
       d="M 46.389819,18.610264 H 41.839133"
       id="path150" /></g><g
     inkscape:groupmode="layer"
     id="layer4"
     inkscape:label="Boxes"
     style="display:inline"><rect
       style="fill:#222222;fill-opacity:1;stroke:none;stroke-width:1.50836;stroke-linecap:round;stroke-opacity:1"
       id="rect1"
       width="2.4974124"
       height="49.083759"
       x="51.389069"
       y="15.752911" /><rect
       style="fill:#222222;fill-opacity:1;stroke:none;stroke-width:1.20064;stroke-linecap:round;stroke-opacity:1"
       id="rect1-8"
       width="2.2092495"
       height="35.15588"
       x="0.85348231"
       y="30.291109" /><rect
       style="fill:#222222;fill-opacity:1;stroke:none;stroke-width:1.30272;stroke-linecap:round;stroke-opacity:1"
       id="rect2"
       width="6.4356403"
       height="9.2212162"
       x="3.0999999"
       y="2.0171411" /><rect
       style="fill:url(#linearGradient29);fill-opacity:1;stroke:none;stroke-width:1.12819;stroke-linecap:round;stroke-opacity:1"
       id="rect2-1"
       width="6.4356403"
       height="6.9159122"
       x="3.0999999"
       y="4.3966551" /><rect
       style="fill:#222222;fill-opacity:1;stroke:none;stroke-width:1.32292;stroke-linecap:round;stroke-opacity:1"
       id="rect3"
       width="4.7066622"
       height="7.3961835"
       x="45.433697"
       y="14.023932" /><rect
       style="fill:#222222;fill-opacity:1;stroke:none;stroke-width:1.14349;stroke-linecap:round;stroke-opacity:1"
       id="rect4"
       width="6.2435312"
       height="4.2263904"
       x="19.306921"
       y="61.85899" /><rect
       style="fill:#222222;fill-opacity:1;stroke:none;stroke-width:1.29857;stroke-linecap:round;stroke-dasharray:none;stroke-opacity:1"
       id="rect30"
       width="9.6999998"
       height="31"
       x="8.1646185"
       y="32.178204"
       inkscape:label="rect30" /><rect
       style="fill:#222222;fill-opacity:1;stroke:none;stroke-width:1.09712;stroke-linecap:round;stroke-opacity:1"
       id="rect142"
       width="4.7066622"
       height="5.0868807"
       x="30.287388"
       y="20.748079" /><rect
       style="fill:#222222;fill-opacity:1;stroke:none;stroke-width:0.989278;stroke-linecap:round;stroke-opacity:1"
       id="rect143"
       width="4.7066622"
       height="4.1359911"
       x="29.879864"
       y="5.6017699" /><rect
       style="fill:#222222;fill-opacity:1;stroke:none;stroke-width:1.27371;stroke-linecap:round;stroke-opacity:1"
       id="rect144"
       width="6.6084409"
       height="4.8831186"
       x="12.152569"
       y="8.8619623" /></g><g
     inkscape:groupmode="layer"
     id="layer2"
     inkscape:label="Shinies"><path
       style="fill:none;fill-opacity:1;stroke:url(#linearGradient104);stroke-width:4.903;stroke-linecap:round;stroke-dasharray:none"
       d="m 21.900387,18.346377 v 7.684347"
       id="path99" /><circle
       style="fill:url(#linearGradient110);stroke:#222222;stroke-width:0.5;stroke-linecap:round;stroke-dasharray:none;stroke-opacity:1"
       id="path108"
       cx="6.437376"
       cy="19.018759"
       r="3.4579561" /><circle
       style="fill:url(#linearGradient111);stroke:#222222;stroke-width:0.5;stroke-linecap:round;stroke-dasharray:none;stroke-opacity:1"
       id="circle110"
       cx="6.437376"
       cy="26.715261"
       r="3.4579561" /><rect
       style="fill:url(#linearGradient22);fill-opacity:1;stroke:url(#linearGradient26);stroke-width:0.223;stroke-linecap:round;stroke-dasharray:none;stroke-opacity:1"
       id="rect20"
       width="8.8369989"
       height="11.814683"
       x="36.500645"
       y="0.28816301" /></g><g
     inkscape:groupmode="layer"
     id="layer3"
     inkscape:label="Atmega"><g
       id="g95"
       inkscape:label="pins"
       transform="matrix(1,0,0,4.2693011,-0.03065941,-108.27116)"><rect
         style="fill:url(#linearGradient84);fill-opacity:1;stroke:none;stroke-width:0.59789;stroke-linecap:round;stroke-dasharray:none;stroke-opacity:1"
         id="rect33"
         width="9"
         height="0.35759431"
         x="8.5488358"
         y="33" /><rect
         style="fill:url(#linearGradient34);fill-opacity:1;stroke:none;stroke-width:0.59789;stroke-linecap:round;stroke-dasharray:none;stroke-opacity:1"
         id="rect60"
         width="9"
         height="0.35759431"
         x="8.5488358"
         y="39.627972" /><rect
         style="fill:url(#linearGradient95);fill-opacity:1;stroke:none;stroke-width:0.59789;stroke-linecap:round;stroke-dasharray:none;stroke-opacity:1"
         id="rect61"
         width="9"
         height="0.35759431"
         x="8.5488358"
         y="39.11813" /><rect
         style="fill:url(#linearGradient94);fill-opacity:1;stroke:none;stroke-width:0.59789;stroke-linecap:round;stroke-dasharray:none;stroke-opacity:1"
         id="rect62"
         width="9"
         height="0.35759431"
         x="8.5488358"
         y="38.608284" /><rect
         style="fill:url(#linearGradient93);fill-opacity:1;stroke:none;stroke-width:0.59789;stroke-linecap:round;stroke-dasharray:none;stroke-opacity:1"
         id="rect63"
         width="9"
         height="0.35759431"
         x="8.5488358"
         y="38.098442" /><rect
         style="fill:url(#linearGradient92);fill-opacity:1;stroke:none;stroke-width:0.59789;stroke-linecap:round;stroke-dasharray:none;stroke-opacity:1"
         id="rect64"
         width="9"
         height="0.35759431"
         x="8.5488358"
         y="37.588596" /><rect
         style="fill:url(#linearGradient91);fill-opacity:1;stroke:none;stroke-width:0.59789;stroke-linecap:round;stroke-dasharray:none;stroke-opacity:1"
         id="rect65"
         width="9"
         height="0.35759431"
         x="8.5488358"
         y="37.078751" /><rect
         style="fill:url(#linearGradient90);fill-opacity:1;stroke:none;stroke-width:0.59789;stroke-linecap:round;stroke-dasharray:none;stroke-opacity:1"
         id="rect66"
         width="9"
         height="0.35759431"
         x="8.5488358"
         y="36.568909" /><rect
         style="fill:url(#linearGradient89);fill-opacity:1;stroke:none;stroke-width:0.59789;stroke-linecap:round;stroke-dasharray:none;stroke-opacity:1"
         id="rect67"
         width="9"
         height="0.35759431"
         x="8.5488358"
         y="36.059063" /><rect
         style="fill:url(#linearGradient88);fill-opacity:1;stroke:none;stroke-width:0.59789;stroke-linecap:round;stroke-dasharray:none;stroke-opacity:1"
         id="rect68"
         width="9"
         height="0.35759431"
         x="8.5488358"
         y="35.549221" /><rect
         style="fill:url(#linearGradient87);fill-opacity:1;stroke:none;stroke-width:0.59789;stroke-linecap:round;stroke-dasharray:none;stroke-opacity:1"
         id="rect69"
         width="9"
         height="0.35759431"
         x="8.5488358"
         y="35.039375" /><rect
         style="fill:url(#linearGradient86);fill-opacity:1;stroke:none;stroke-width:0.59789;stroke-linecap:round;stroke-dasharray:none;stroke-opacity:1"
         id="rect70"
         width="9"
         height="0.35759431"
         x="8.5488358"
         y="34.529533" /><rect
         style="fill:url(#linearGradient85);fill-opacity:1;stroke:none;stroke-width:0.59789;stroke-linecap:round;stroke-dasharray:none;stroke-opacity:1"
         id="rect71"
         width="9"
         height="0.35759431"
         x="8.5488358"
         y="34.019688" /><rect
         style="fill:url(#linearGradient72);fill-opacity:1;stroke:none;stroke-width:0.59789;stroke-linecap:round;stroke-dasharray:none;stroke-opacity:1"
         id="rect72"
         width="9"
         height="0.35759431"
         x="8.5488358"
         y="33.509846" /></g><rect
       style="fill:url(#linearGradient97);fill-opacity:1;stroke:none;stroke-width:0.653698;stroke-linecap:round;stroke-dasharray:none;stroke-opacity:1"
       id="rect95"
       width="8.2606726"
       height="7.1321325"
       x="8.8676586"
       y="32.942505"
       transform="matrix(1,0,0,4.2693011,-0.03065941,-108.27116)" /></g><g
     style="display:inline;fill:#222222;fill-opacity:1;stroke:#ffffff;stroke-opacity:1"
     id="g150"
     transform="matrix(0,0.02235393,-0.02180073,0,43.472916,29.003494)"><g
       fill="none"
       id="g3"
       style="fill:none;fill-opacity:1;stroke:#ffffff;stroke-opacity:1"><path
         d="M 174,30 C 78.9,22.43 -1,135 38,222 c 38,94.4 181,120 249,44.4 65.9,-64.6 91.3,-164 172,-215 82,-56 214,-3.12 230,96.4 15.6,95.3 -87.1,188 -180,160 -68.7,-15.5 -118,-74.2 -146,-136 -34.5,-59 -79.6,-122 -150,-138 -12.5,-2.84 -25.4,-3.96 -38.2,-3.94 z"
         stroke-width="59"
         id="path1-3"
         style="fill:none;fill-opacity:1;stroke:#ffffff;stroke-opacity:1" /><path
         d="M 118,165 H 238"
         stroke-width="25"
         id="path2"
         style="fill:none;fill-opacity:1;stroke:#ffffff;stroke-opacity:1" /><path
         d="M 486,165 H 586 M 535,115 V 215"
         stroke-width="32"
         id="path3"
         style="fill:none;fill-opacity:1;stroke:#ffffff;stroke-opacity:1" /></g><path
       d="M 84,485 77.6,462 H 37 l -6.6,23 H 8.7 L 43.1,369 h 30.6 l 34.4,116 z M 57.6,390 42.3,444.1 H 72.7 Z M 180,485 c 0,0 -11.7,-27.6 -18.3,-41 -3.83,-5.76 -11.4,-8.02 -18,-7.1 -0.6,15.7 -0.48,48.1 -0.48,48.1 h -21.9 V 369 c 0,0 33,-0.97 49.4,1.2 34.7,3.92 37,54.4 2.13,59.7 6.54,2.6 10.5,8.65 13.3,14.8 l 17.5,36.2 c 1.23,2.48 1.2,4.4 -2.34,4.38 z m -5.42,-82.1 c -0.1,-17.9 -18,-15.9 -31.3,-16 v 32.8 c 15.7,0.53 31,-1.07 31.3,-16.8 z M 302,455 c -10.6,24.5 -33.8,30.2 -55.8,29.8 h -26.9 v -116 l 40.9,0.2 c 50.6,1.65 52.4,56.2 41.7,86.4 z m -28,-61.3 c -10.2,-8.76 -21.4,-6.97 -32.8,-6.97 v 79.7 c 10,0 20.9,0.8 29.4,-5.4 18.1,-11.4 15.8,-54.6 3.35,-67.3 z M 407,442 c 2.17,58.6 -81.5,58.4 -84,12.7 -1.53,-14 -0.27,-28 -0.68,-42 v -44.2 h 21.9 l 0.4,83 c 2.57,22.9 33,20.9 37.6,8.2 4.66,-10.1 2.5,-21.5 2.98,-32.3 v -58.9 h 21.9 V 442 Z m 21,-56 v -17.9 h 73.5 V 386 h -25.6 v 80.4 h 25.6 v 18.1 H 428 v -18.1 h 25.6 V 386 Z m 155,99 -37.6,-84.4 V 485 H 525.5 V 369 h 26.9 l 37.4,83.6 c 0.1,-6 0.04,-83.6 0.04,-83.6 h 19.9 v 116 z m 117,-10 c -24.3,20.9 -66.7,16.3 -75.1,-24.9 -11.5,-62.6 22.4,-98.6 69.6,-77.6 29,16.3 27.4,83.4 5.5,103 z m -29.3,-88.7 c -20.7,-0.55 -23.7,20.6 -24.5,30.8 -0.17,19.3 -1.88,51.4 24.9,50 8.3,0 15.5,-6.02 18.2,-13.7 5.45,-12.1 9.56,-68.1 -18.6,-67.1 z M 676,13.4 v 2.34 h 5.15 v 13.6 h 2.66 v -13.6 h 5.2 V 13.4 Z m 14.8,0 v 15.9 h 2.43 V 15.7 l 4.3,13.6 h 2.4 l 4.1,-13.3 v 13.3 h 2.4 V 13.4 h -3.8 l -3.9,12.7 -4,-12.7 z"
       fill="#00979c"
       id="path4"
       style="fill:#ffffff;fill-opacity:1;stroke:#ffffff;stroke-opacity:1" /></g></svg>
